<svg viewBox="441.5 223.1192 380 275.7616" width="5000" height="3628.4421052631574" xmlns="http://www.w3.org/2000/svg" xmlns:xlink="http://www.w3.org/1999/xlink" preserveAspectRatio="none"><defs></defs><style>.a7KDWqqaqfillColor {fill:#FFFFFF;fill-opacity:0;}.aZzOTVRhffillColor {fill:#FFFFFF;fill-opacity:0;}.companyName {fill:#FFFFFF;fill-opacity:1;}.shapeStroke-str {stroke:#FFFFFF;stroke-opacity:1;}</style><g opacity="0.2" transform="rotate(0 464.4801 246.0993)">
<svg width="357.0199" height="252.7815" x="464.4801" y="246.0993" version="1.1" preserveAspectRatio="none" viewBox="0 0 357.0199 252.7815">
  <rect x="1.5" y="1.5" width="354.0199" height="249.7815" class="aZzOTVRhffillColor shapeStroke-str" style="stroke-width:3;" rx="0%" ry="0%" />
</svg>
</g><g opacity="0.2" transform="rotate(0 441.5 223.1192)">
<svg width="357.0199" height="252.7814" x="441.5" y="223.1192" version="1.1" preserveAspectRatio="none" viewBox="0 0 357.0199 252.7814">
  <rect x="1.5" y="1.5" width="354.0199" height="249.7814" class="a7KDWqqaqfillColor shapeStroke-str" style="stroke-width:3;" rx="0px" ry="0px" />
</svg>
</g><g opacity="1" transform="rotate(0 510.4404 292.0596)">
<svg width="242.1192" height="137.8808" x="510.4404" y="292.0596" version="1.1" preserveAspectRatio="none" viewBox="3.2 -28 50 28.48">
  <g transform="matrix(1 0 0 1 0 0)" class="companyName"><path d="M3.20 0L3.20-28L6.60-28L6.60-16.72L6.76-16.72Q7.16-17.76 7.82-18.46Q8.48-19.16 9.32-19.60Q10.16-20.04 11.10-20.24Q12.04-20.44 13-20.44L13-20.44Q15-20.44 16.68-19.70Q18.36-18.96 19.58-17.60Q20.80-16.24 21.48-14.32Q22.16-12.40 22.16-10.04L22.16-10.04Q22.16-7.64 21.48-5.70Q20.80-3.76 19.58-2.38Q18.36-1 16.68-0.26Q15 0.48 13 0.48L13 0.48Q8.24 0.48 6.76-3.24L6.76-3.24L6.60-3.24L6.60 0L3.20 0ZM6.60-11.48L6.60-8Q6.60-6.68 7.02-5.50Q7.44-4.32 8.20-3.46Q8.96-2.60 9.98-2.10Q11-1.60 12.16-1.60L12.16-1.60Q13.40-1.60 14.54-2.06Q15.68-2.52 16.52-3.52Q17.36-4.52 17.86-6.12Q18.36-7.72 18.36-9.96L18.36-9.96Q18.36-12.24 17.86-13.84Q17.36-15.44 16.50-16.46Q15.64-17.48 14.52-17.94Q13.40-18.40 12.16-18.40L12.16-18.40Q11.04-18.40 10.04-17.94Q9.04-17.48 8.28-16.58Q7.52-15.68 7.06-14.40Q6.60-13.12 6.60-11.48L6.60-11.48Z M28.44-20L24.96-20L31.88 0L34.04 0L38.68-13.40L38.84-13.40L44.04 0L45.92 0L53.20-20L51.12-20L45.68-5.04L45.52-5.04L39.84-20L39.04-20L33.80-4.92L33.64-4.92L28.44-20Z"/></g>
</svg>
</g></svg>